<?xml version="1.0" encoding="UTF-8"?>
<svg version="1.1" xmlns="http://www.w3.org/2000/svg" width="666" height="666">
<path d="M0 0 C1.06858246 -0.00705963 2.13716492 -0.01411926 3.23812866 -0.02139282 C47.70515233 -0.24855978 47.70515233 -0.24855978 66.46484375 3.203125 C67.60211914 3.40711914 68.73939453 3.61111328 69.91113281 3.82128906 C130.46236497 14.93502043 187.21971486 40.10225926 233.46484375 81.203125 C234.19807861 81.85023437 234.93131348 82.49734375 235.68676758 83.1640625 C241.99653704 88.77879802 248.0534671 94.60863768 254.02734375 100.578125 C255.34895508 101.88136719 255.34895508 101.88136719 256.69726562 103.2109375 C262.7256952 109.22602 268.1842466 115.52639314 273.46484375 122.203125 C274.07110596 122.9554541 274.67736816 123.7077832 275.30200195 124.48291016 C298.81070033 153.69585134 317.11404899 186.78870708 329.46484375 222.203125 C329.76874023 223.07227539 330.07263672 223.94142578 330.38574219 224.83691406 C340.71804401 254.81933527 347.52778864 286.94434161 347.66796875 318.73828125 C347.67502838 319.80686371 347.68208801 320.87544617 347.68936157 321.97640991 C347.91652853 366.44343358 347.91652853 366.44343358 344.46484375 385.203125 C344.15885254 386.90903809 344.15885254 386.90903809 343.84667969 388.64941406 C332.73294832 449.20064622 307.56570949 505.95799611 266.46484375 552.203125 C265.81773437 552.93635986 265.170625 553.66959473 264.50390625 554.42504883 C258.88917073 560.73481829 253.05933107 566.79174835 247.08984375 572.765625 C246.22101562 573.64669922 245.3521875 574.52777344 244.45703125 575.43554688 C238.44194875 581.46397645 232.14157561 586.92252785 225.46484375 592.203125 C224.3363501 593.11251831 224.3363501 593.11251831 223.18505859 594.0402832 C193.97211741 617.54898158 160.87926167 635.85233024 125.46484375 648.203125 C124.59569336 648.50702148 123.72654297 648.81091797 122.83105469 649.12402344 C92.84863348 659.45632526 60.72362714 666.26606989 28.9296875 666.40625 C27.86110504 666.41330963 26.79252258 666.42036926 25.69155884 666.42764282 C-18.77546483 666.65480978 -18.77546483 666.65480978 -37.53515625 663.203125 C-39.24106934 662.89713379 -39.24106934 662.89713379 -40.98144531 662.58496094 C-101.53267747 651.47122957 -158.29002736 626.30399074 -204.53515625 585.203125 C-205.63500854 584.23246094 -205.63500854 584.23246094 -206.75708008 583.2421875 C-213.06684954 577.62745198 -219.1237796 571.79761232 -225.09765625 565.828125 C-225.97873047 564.95929687 -226.85980469 564.09046875 -227.76757812 563.1953125 C-233.7960077 557.18023 -239.2545591 550.87985686 -244.53515625 544.203125 C-245.44454956 543.07463135 -245.44454956 543.07463135 -246.37231445 541.92333984 C-269.88101283 512.71039866 -288.18436149 479.61754292 -300.53515625 444.203125 C-300.83905273 443.33397461 -301.14294922 442.46482422 -301.45605469 441.56933594 C-311.78835651 411.58691473 -318.59810114 379.46190839 -318.73828125 347.66796875 C-318.74534088 346.59938629 -318.75240051 345.53080383 -318.75967407 344.42984009 C-318.98684103 299.96281642 -318.98684103 299.96281642 -315.53515625 281.203125 C-315.33116211 280.06584961 -315.12716797 278.92857422 -314.91699219 277.75683594 C-303.80326082 217.20560378 -278.63602199 160.44825389 -237.53515625 114.203125 C-236.88804687 113.46989014 -236.2409375 112.73665527 -235.57421875 111.98120117 C-229.95948323 105.67143171 -224.12964357 99.61450165 -218.16015625 93.640625 C-217.29132813 92.75955078 -216.4225 91.87847656 -215.52734375 90.97070312 C-209.51226125 84.94227355 -203.21188811 79.48372215 -196.53515625 74.203125 C-195.78282715 73.59686279 -195.03049805 72.99060059 -194.25537109 72.3659668 C-165.04242991 48.85726842 -131.94957417 30.55391976 -96.53515625 18.203125 C-95.66600586 17.89922852 -94.79685547 17.59533203 -93.90136719 17.28222656 C-63.91894598 6.94992474 -31.79393964 0.14018011 0 0 Z " fill="#FEFEFE" transform="translate(318.53515625,-0.203125)"/>
<path d="M0 0 C2.90729039 0.00008086 5.81442186 -0.00681174 8.72167969 -0.02050781 C33.51651451 -0.1351576 57.97964608 0.69661821 82.44750977 5.06030273 C84.00180103 5.32951018 85.55616414 5.59830307 87.1105957 5.86669922 C102.30948322 8.51562592 117.1292606 11.60646632 131.7824707 16.47583008 C134.09329109 17.23307456 136.41366351 17.95432411 138.73657227 18.67358398 C166.95437842 27.55103503 194.16571756 40.50353067 217.94750977 58.18530273 C218.85122314 58.85577637 218.85122314 58.85577637 219.77319336 59.53979492 C236.42935984 72.0150795 257.58032298 88.59608192 263.94750977 109.18530273 C264.70559718 118.04434752 265.359975 126.72487768 259.94750977 134.18530273 C254.06980914 139.76911833 249.38781004 140.65414668 241.43579102 140.48608398 C231.77078247 139.65270699 223.83597874 135.35028237 215.81738281 130.18359375 C210.92859995 127.19291905 206.66296457 126.23742604 200.94750977 127.18530273 C196.03093426 129.37076318 192.13000648 132.84626224 188.01000977 136.24780273 C180.68247445 142.14775126 174.43899036 145.07358205 164.86547852 144.68530273 C154.75079303 142.95213039 148.23286677 133.41689568 142.10766602 125.93920898 C137.80139937 120.77364197 133.44217373 115.94168631 126.53344727 114.77905273 C112.59724448 114.26129907 101.09049666 122.89518795 89.81762695 130.06567383 C77.40163763 137.95309751 63.25970114 146.31065422 47.94750977 144.18530273 C36.6230913 141.32869267 30.9010405 133.68345987 24.88500977 124.18530273 C18.10643459 113.56761337 11.69755103 104.69141726 -1.05249023 101.18530273 C-16.26577016 98.97493697 -31.84330013 102.46630653 -46.23999023 107.12280273 C-48.4417375 107.81965639 -50.64355936 108.51627442 -52.84545898 109.21264648 C-53.89209717 109.54748047 -54.93873535 109.88231445 -56.01708984 110.22729492 C-59.62050673 111.36457537 -63.24054232 112.43746467 -66.86987305 113.48876953 C-69.17997155 114.22598553 -71.3838432 115.1123935 -73.61499023 116.06030273 C-80.17710792 118.75692297 -86.99772288 120.59797393 -93.81030273 122.53979492 C-95.99980784 123.1701359 -98.18304185 123.81838714 -100.36499023 124.47436523 C-113.92926548 128.54940924 -127.555903 131.95364637 -141.42749023 134.81030273 C-142.4065332 135.01655273 -143.38557617 135.22280273 -144.39428711 135.43530273 C-159.74698828 138.5198637 -174.9863534 139.53609016 -190.61499023 139.43530273 C-191.43277954 139.43319794 -192.25056885 139.43109314 -193.09313965 139.42892456 C-206.29964101 139.3892813 -219.37864202 138.83524758 -232.52050781 137.44848633 C-234.25051929 137.26866255 -235.98234231 137.10567664 -237.71533203 136.95727539 C-245.91463779 136.2390992 -253.35284427 134.55866052 -260.36499023 130.06030273 C-263.0298936 125.520097 -262.30275785 122.17999429 -261.05249023 117.18530273 C-256.25902672 101.57371436 -248.86906274 88.46758575 -238.05249023 76.18530273 C-237.3319043 75.33194336 -236.61131836 74.47858398 -235.86889648 73.59936523 C-230.47839411 67.35368512 -224.57001172 62.22278514 -218.05249023 57.18530273 C-217.16174805 56.46729492 -216.27100586 55.74928711 -215.35327148 55.00952148 C-181.53367734 28.45382901 -137.44165986 15.20661155 -95.78198242 7.68212891 C-94.0299763 7.36322618 -92.28028354 7.03117579 -90.53393555 6.68261719 C-82.52419556 5.11652231 -74.45798235 4.2403553 -66.34838867 3.38037109 C-63.95218265 3.12542985 -61.55703683 2.86187487 -59.16186523 2.59741211 C-39.42416261 0.44899993 -19.83767985 -0.00275668 0 0 Z " fill="#012763" transform="translate(330.052490234375,149.814697265625)"/>
<path d="M0 0 C0.88084259 0.00221558 1.76168518 0.00443115 2.66921997 0.00671387 C74.11798356 0.21712626 156.24689533 13.61321825 215.125 57.125 C215.75003418 57.5792334 216.37506836 58.0334668 217.01904297 58.50146484 C233.80338704 70.74244014 248.50690683 83.84614787 259.9375 101.3125 C260.49800049 102.16811523 260.49800049 102.16811523 261.06982422 103.04101562 C263.54091335 106.92559918 265.40737942 110.8597355 267.125 115.125 C267.55941406 116.18460937 267.99382813 117.24421875 268.44140625 118.3359375 C274.70639926 134.24391347 276.97909476 148.96891948 270.125 165.125 C269.465 165.125 268.805 165.125 268.125 165.125 C267.74794922 166.23681641 267.74794922 166.23681641 267.36328125 167.37109375 C264.77022624 173.13798266 259.77251385 176.8841939 254.1328125 179.52734375 C243.43425085 183.20252202 233.30211038 182.59477218 222.25 181.125 C206.28446043 179.09559111 191.28824603 179.18131997 175.625 183.125 C155.40664116 188.1921578 141.86906566 185.39012704 122.71875 177.76953125 C104.40802819 170.80240221 86.72084061 177.2901739 69.06884766 182.96972656 C58.58139173 186.30907999 48.22880538 189.04741643 37.125 188.125 C36.42632812 188.06699219 35.72765625 188.00898438 35.0078125 187.94921875 C25.20890044 186.41467214 15.92825742 180.20275771 7.32421875 175.515625 C6.51065918 175.07669922 5.69709961 174.63777344 4.85888672 174.18554688 C3.3036637 173.34380084 1.75394234 172.4917639 0.21142578 171.62695312 C-12.11381979 164.94592829 -23.58188531 163.46940819 -37.3125 163.6875 C-38.10624023 163.69431793 -38.89998047 163.70113586 -39.71777344 163.7081604 C-52.65151182 163.82296746 -65.13863838 164.81011199 -77.875 167.125 C-80.05307806 167.49400628 -82.23148357 167.86108329 -84.41015625 168.2265625 C-96.67967119 170.32072741 -108.8794476 172.70322446 -121.0625 175.25 C-125.6663599 176.20981532 -130.27039593 177.16876061 -134.875 178.125 C-135.67873047 178.29273926 -136.48246094 178.46047852 -137.31054688 178.63330078 C-159.22341696 183.12837843 -181.43750635 184.41053808 -203.75 184.5 C-204.63460907 184.50776459 -205.51921814 184.51552917 -206.43063354 184.52352905 C-226.61157601 184.66355558 -248.60613565 182.47560384 -264.1328125 168.0234375 C-268.38154111 163.46114958 -271.48294814 158.870987 -273.875 153.125 C-274.266875 152.25875 -274.65875 151.3925 -275.0625 150.5 C-280.17179209 135.56514619 -277.49382465 118.01259847 -270.89990234 104.06201172 C-266.32465549 94.8751556 -260.81408516 86.71425498 -253.875 79.125 C-253.12863281 78.29742187 -252.38226563 77.46984375 -251.61328125 76.6171875 C-241.40127799 65.84816589 -228.74426517 57.40121048 -215.875 50.125 C-215.14635742 49.71282227 -214.41771484 49.30064453 -213.66699219 48.87597656 C-199.56279671 40.99811299 -185.02283489 34.70977299 -169.875 29.125 C-168.85293457 28.74633789 -167.83086914 28.36767578 -166.77783203 27.97753906 C-113.63592944 8.590539 -56.44634504 -0.19051354 0 0 Z M-81.6875 32.0625 C-83.56804077 32.3246228 -83.56804077 32.3246228 -85.48657227 32.59204102 C-93.63855161 33.74888759 -101.75544114 34.98641226 -109.81298828 36.69335938 C-112.21395551 37.19595351 -114.62055699 37.66670005 -117.02734375 38.140625 C-138.98937888 42.57343424 -160.35077093 49.12013736 -180.875 58.125 C-181.72900391 58.49850586 -182.58300781 58.87201172 -183.46289062 59.25683594 C-202.03210684 67.48621921 -218.7937363 77.48790656 -233.875 91.125 C-235.21111328 92.26388672 -235.21111328 92.26388672 -236.57421875 93.42578125 C-252.94277198 107.53833174 -268.06954422 129.18570533 -270.875 151.125 C-270.51382592 155.86234987 -270.51382592 155.86234987 -267.4375 159.3125 C-238.65143627 173.9580412 -188.64669419 169.79065685 -157.875 164.125 C-156.73724121 163.92632324 -155.59948242 163.72764648 -154.42724609 163.52294922 C-137.38041319 160.51706863 -121.00827666 156.35975264 -104.5625 150.98535156 C-101.02275054 149.85216869 -97.45977122 148.8561766 -93.875 147.875 C-89.28560239 146.59019309 -84.9704021 145.00612116 -80.57421875 143.1796875 C-70.29889484 139.16472736 -59.47429 136.39198871 -48.875 133.375 C-47.81273193 133.06908936 -46.75046387 132.76317871 -45.65600586 132.44799805 C-32.19225563 128.66208201 -15.15308414 125.51706988 -2.125 132.125 C6.85042351 137.35633027 11.23082659 144.22524346 16.65185547 152.82788086 C22.41303478 161.85632248 28.20493314 169.69643148 39.125 172.125 C57.95402911 175.42890119 77.65457647 160.82880475 92.48071289 151.11621094 C101.55858499 145.18352368 109.1776565 142.16119733 120.125 143.125 C122.75 144.1875 122.75 144.1875 125.125 146.125 C125.9603125 146.76888672 125.9603125 146.76888672 126.8125 147.42578125 C131.31856967 151.08696286 134.91384566 155.21061187 138.5625 159.6875 C145.75453528 168.36767474 145.75453528 168.36767474 155.9296875 172.68359375 C165.12071526 173.26847733 172.62591379 169.79476157 179.66796875 164.05078125 C181.18316136 162.67771726 182.68777979 161.29286052 184.1796875 159.89453125 C188.73083136 155.75463533 192.70800949 154.71941179 198.66845703 154.79052734 C203.03913999 155.38562133 206.37462916 157.63492683 210.0625 159.9375 C220.58219172 166.10076886 229.619488 169.81795565 242.125 168.125 C247.85460962 166.00023193 251.20963814 162.48926582 254.125 157.125 C256.58989494 149.73031518 256.56993336 138.92607119 253.1875 131.8125 C252.22247111 130.21493116 251.1964976 128.6532015 250.125 127.125 C249.48175781 126.18527344 248.83851563 125.24554688 248.17578125 124.27734375 C231.48016581 101.04735817 208.86095908 84.0541636 184.125 70.125 C183.43277344 69.73103027 182.74054688 69.33706055 182.02734375 68.93115234 C168.57940804 61.34413495 154.56628544 55.54370188 140.125 50.125 C138.76012451 49.61211426 138.76012451 49.61211426 137.36767578 49.08886719 C117.70569517 41.77944417 97.90658966 37.25143807 77.25439453 33.66845703 C74.53062219 33.19544118 71.81020156 32.70698272 69.08984375 32.21484375 C46.43294398 28.24624105 23.50044078 27.78977616 0.55834961 27.86425781 C-2.97040037 27.8756183 -6.49884738 27.8688786 -10.02758694 27.85738277 C-34.00051309 27.79116674 -57.9268808 28.63167683 -81.6875 32.0625 Z " fill="#F28222" transform="translate(338.875,121.875)"/>
<path d="M0 0 C3.51510659 1.3139962 6.79392887 2.90978066 10.10864258 4.66455078 C28.41636257 14.24962473 47.79269722 19.11975651 68 23 C68.8986377 23.18079102 69.79727539 23.36158203 70.72314453 23.54785156 C102.72932035 29.76012493 143.92688567 29.49545806 176 23 C177.97396929 22.80277638 179.95115991 22.63668843 181.9296875 22.4921875 C183.16750977 22.39591064 184.40533203 22.29963379 185.68066406 22.20043945 C186.35713989 22.14812164 187.03361572 22.09580383 187.73059082 22.04190063 C200.50966246 21.04729793 213.23397926 19.77463617 225.9609375 18.24609375 C275.67788614 12.2991261 275.67788614 12.2991261 296.25 12.4375 C296.99318481 12.44109528 297.73636963 12.44469055 298.5020752 12.44839478 C312.92674864 12.57925804 327.33558051 14.09080863 341.5625 16.4375 C401.1983398 25.69492052 458.29995741 23.97096941 517.28222656 12.35351562 C523.10112797 11.22099139 528.69387878 10.6133294 534.625 10.625 C535.44677734 10.62588623 536.26855469 10.62677246 537.11523438 10.62768555 C544.01033058 10.76276251 549.22618176 12.01057816 554.69140625 16.33984375 C556.91945844 19.16647712 556.46553267 21.97629836 556.33984375 25.4453125 C555.82777753 29.29463785 554.37582448 32.02678612 552 35 C551.53335938 35.58910156 551.06671875 36.17820312 550.5859375 36.78515625 C539.98055713 48.57698328 524.30181532 56.58484601 510 63 C508.94941406 63.48082031 507.89882813 63.96164062 506.81640625 64.45703125 C491.75965418 70.80580187 474.68203675 73.09150142 458.4375 73.2734375 C457.4019397 73.2857843 456.36637939 73.2981311 455.29943848 73.31085205 C451.86626168 73.34346273 448.43330613 73.36206397 445 73.375 C443.81059814 73.37989441 442.62119629 73.38478882 441.39575195 73.38983154 C415.82145868 73.43263903 390.55247476 71.51972371 365.09375 69.2890625 C360.06306495 68.85249812 355.03186797 68.42271189 350 68 C348.80912781 67.89930206 347.61825562 67.79860413 346.39129639 67.69485474 C323.17374532 65.79361627 300.01127455 65.64261216 276.72964478 65.6827507 C273.58513998 65.68756098 270.44065079 65.68859165 267.29614258 65.68899536 C232.07185386 65.70521957 196.95731965 66.67653294 161.78108215 68.44393921 C152.14921068 68.92059478 142.5176121 69.28692843 132.87890625 69.5859375 C131.59967285 69.62605453 130.32043945 69.66617157 129.00244141 69.70750427 C90.16376678 70.8588918 90.16376678 70.8588918 76 68 C74.72769531 67.74347656 73.45539063 67.48695313 72.14453125 67.22265625 C49.95634959 62.37051542 30.91348909 52.13762274 15 36 C14.21625 35.2265625 13.4325 34.453125 12.625 33.65625 C5.10861269 25.79820872 -0.19337409 16.24342389 -0.0625 5.25 C-0.05347656 4.26515625 -0.04445312 3.2803125 -0.03515625 2.265625 C-0.02355469 1.51796875 -0.01195312 0.7703125 0 0 Z " fill="#032863" transform="translate(47,410)"/>
<path d="M0 0 C0.7213916 0.08540039 1.4427832 0.17080078 2.18603516 0.25878906 C8.51794608 1.02711516 14.82201838 1.96347602 21.125 2.9375 C22.14166748 3.09089844 23.15833496 3.24429687 24.20581055 3.40234375 C26.83160465 3.81595574 29.43521129 4.26122384 32.04785156 4.74243164 C48.36764556 7.58069503 64.7273235 7.5504811 81.2346611 7.50552368 C83.65272422 7.49993593 86.07073167 7.50034913 88.48880005 7.50170898 C111.21850784 7.497823 133.50012035 6.38343479 156.09887695 3.796875 C168.20180737 2.41569561 180.1258065 1.49034868 192.3125 1.5 C193.62275146 1.49419922 194.93300293 1.48839844 196.28295898 1.48242188 C209.77239507 1.66018344 224.40601886 3.70415368 235.04296875 12.734375 C240.73174959 18.84204469 240.24921719 25.88585744 240.140625 33.89453125 C239.56546372 46.59600956 230.39052975 56.23151846 222 65 C221.45988281 65.60328125 220.91976562 66.2065625 220.36328125 66.828125 C208.82482371 79.2675704 191.9312246 88.77496814 176 94 C174.74835712 94.51687277 173.4982495 95.03748519 172.25 95.5625 C160.50142337 100.00462712 147.32456092 101.13465745 134.86328125 101.23828125 C133.88702286 101.24793915 132.91076447 101.25759705 131.90492249 101.26754761 C128.70740937 101.29250347 125.51010043 101.30499027 122.3125 101.3125 C121.21053284 101.31545074 120.10856567 101.31840149 118.97320557 101.32144165 C97.50995626 101.33439951 76.37692 99.78935756 55.04736328 97.53027344 C48.13772329 96.79849558 41.22088262 96.14673975 34.30279541 95.50064087 C32.42384884 95.32302571 30.54563507 95.137707 28.66748047 94.9519043 C8.78467831 93.02368121 -11.0370693 92.75935154 -31 92.75 C-31.72123676 92.74926357 -32.44247353 92.74852715 -33.18556595 92.7477684 C-60.87664964 92.7248172 -88.39030438 93.78768866 -116 96 C-117.30934509 96.10468597 -117.30934509 96.10468597 -118.6451416 96.21148682 C-125.6365573 96.77455716 -132.62697216 97.34925752 -139.61108398 97.99731445 C-157.98405144 99.69654167 -176.17270639 100.18810303 -194.61816406 100.18530273 C-197.36562698 100.18522156 -200.11292283 100.19216492 -202.86035156 100.20581055 C-242.67861031 100.40032301 -282.95254269 97.91864379 -314 70 C-314.77988281 69.31421875 -315.55976563 68.6284375 -316.36328125 67.921875 C-327.63145905 57.41269363 -337.85597101 40.92190124 -339.23828125 25.30859375 C-339.44005772 17.50303038 -337.87321294 11.23433972 -335 4 C-323.15543885 3.1852149 -312.1576819 4.47298195 -300.5625 6.875 C-289.62476238 9.13722647 -278.82502212 11.06053904 -267.66763306 11.81695557 C-265.71904507 11.95066143 -263.771087 12.09363945 -261.82356262 12.24203491 C-252.48848805 12.92309768 -243.18363199 13.19118345 -233.82421875 13.23828125 C-233.07978264 13.24308376 -232.33534653 13.24788628 -231.56835175 13.25283432 C-225.94140751 13.28856704 -220.31454528 13.30433205 -214.6875 13.3125 C-213.86287891 13.31409245 -213.03825783 13.31568489 -212.18864822 13.31732559 C-191.88331724 13.35063777 -171.65774445 13.28461411 -151.4375 11.1875 C-150.63533051 11.10472809 -149.83316101 11.02195618 -149.00668335 10.93667603 C-140.26109038 10.00028937 -131.61846636 8.64152269 -122.96723938 7.06437683 C-117.20415937 6.01532108 -111.43903752 5.20104356 -105.625 4.5 C-99.37501169 3.72256621 -93.1541168 2.89089302 -86.94677734 1.82348633 C-58.26652279 -3.07639291 -28.8582958 -3.42577428 0 0 Z M-332 8 C-332.99413217 19.02382119 -330.09598109 28.40887741 -323.3125 37.1875 C-321.90117203 38.81474009 -320.46273227 40.41880702 -319 42 C-318.2471875 42.83273437 -317.494375 43.66546875 -316.71875 44.5234375 C-296.84496709 65.49414998 -266.81071508 77.14236109 -238.16021729 78.09436035 C-234.96163762 78.13032335 -231.76515642 78.13182059 -228.56640625 78.1171875 C-227.38502579 78.11411591 -226.20364532 78.11104431 -224.98646545 78.10787964 C-213.75940002 78.04977283 -202.54984786 77.70520256 -191.33230591 77.25921631 C-187.77440168 77.11855178 -184.21624422 76.98660929 -180.65795898 76.85595703 C-169.66633714 76.44713449 -158.67933109 76.00098441 -147.6953125 75.421875 C-119.47694921 73.9782264 -91.2815708 73.78248956 -63.03199387 73.7541275 C-59.85767302 73.75005791 -56.68337619 73.74255798 -53.50906372 73.73431396 C-29.58433449 73.68028774 -5.85190885 73.96339848 18 76 C19.22633148 76.10328613 20.45266296 76.20657227 21.71615601 76.31298828 C26.77156674 76.74153421 31.82625123 77.177881 36.88038635 77.62121582 C62.02129354 79.82310696 86.99513867 81.49780637 112.25 81.5 C113.36947021 81.50412903 114.48894043 81.50825806 115.64233398 81.51251221 C147.73334853 81.56663561 176.37856725 75.43022267 203 57 C203.99 56.34 204.98 55.68 206 55 C212.87746761 50.26218898 221.26907744 44.19276768 224 36 C224.45675113 32.58882069 224.57056715 29.40166701 224 26 C219.6778735 21.06042685 214.90536309 19.33610429 208.48828125 18.59375 C192.84253634 18.00269279 177.5501447 21.4288958 162.24169922 24.23046875 C108.03721416 34.114359 55.15083019 31.08360491 0.86669922 23.35791016 C-36.43967873 18.06753202 -72.84727523 22.25993705 -109.97831726 26.71917725 C-122.07211194 28.15895943 -134.17779325 29.26142745 -146.31933594 30.20043945 C-147.5571582 30.29671631 -148.79498047 30.39299316 -150.0703125 30.4921875 C-151.10945801 30.56808105 -152.14860352 30.64397461 -153.21923828 30.72216797 C-155.95982677 30.94914556 -155.95982677 30.94914556 -158.46044922 31.49829102 C-190.69613576 37.866714 -231.96318674 37.44527604 -264 31 C-265.06234863 30.79600586 -266.12469727 30.59201172 -267.21923828 30.38183594 C-287.10217606 26.50512861 -305.77333961 21.19723821 -323.71484375 11.69921875 C-326.44478829 10.28717847 -329.12494433 9.07473618 -332 8 Z " fill="#F38323" transform="translate(379,402)"/>
<path d="M0 0 C6.45534531 -0.10240038 12.9104771 -0.17187969 19.36645508 -0.21972656 C21.5572899 -0.23969742 23.74807243 -0.26688378 25.9387207 -0.30175781 C53.54008223 -0.72978349 53.54008223 -0.72978349 64.3125 6.75 C66.59258475 9.01298411 67.51457636 10.72861411 67.8125 13.9375 C67.35335149 18.82883721 64.64000755 21.90107465 61 25 C57.625 26.9375 57.625 26.9375 55 28 C57.55106364 32.10388499 60.40486608 35.93841161 63.375 39.75 C64.10460937 40.69359375 64.83421875 41.6371875 65.5859375 42.609375 C68.28640648 45.28362583 70.34863836 46.09505158 74 47 C74 48.65 74 50.3 74 52 C64.76 52 55.52 52 46 52 C45.01 49.69 44.02 47.38 43 45 C41.70052205 42.60829736 40.21297448 40.37800847 38.6875 38.125 C38.32205078 37.54492188 37.95660156 36.96484375 37.58007812 36.3671875 C35.48750992 33.27351154 34.36745218 32.09851031 30.70703125 31.1171875 C29.81371094 31.07851563 28.92039062 31.03984375 28 31 C28.05987789 33.46098116 28.14678474 35.91578412 28.25 38.375 C28.26417969 39.07367188 28.27835937 39.77234375 28.29296875 40.4921875 C28.36035782 42.77717646 28.36035782 42.77717646 29 46 C30.91388341 47.56483494 30.91388341 47.56483494 33 48 C33 49.32 33 50.64 33 52 C22.11 52 11.22 52 0 52 C0 50.68 0 49.36 0 48 C1.65 47.34 3.3 46.68 5 46 C5 32.8 5 19.6 5 6 C2.525 5.01 2.525 5.01 0 4 C0 2.68 0 1.36 0 0 Z " fill="#080808" transform="translate(236,327)"/>
<path d="M0 0 C10.89 0 21.78 0 33 0 C33 1.32 33 2.64 33 4 C31.68 4.33 30.36 4.66 29 5 C28.67 10.61 28.34 16.22 28 22 C34.6 22 41.2 22 48 22 C47.67 16.72 47.34 11.44 47 6 C44.525 5.01 44.525 5.01 42 4 C42 2.68 42 1.36 42 0 C53.22 0 64.44 0 76 0 C76 1.32 76 2.64 76 4 C74.02 4.33 72.04 4.66 70 5 C70.495 25.295 70.495 25.295 71 46 C72.32 46.66 73.64 47.32 75 48 C75 48.99 75 49.98 75 51 C64.44 51 53.88 51 43 51 C43 50.01 43 49.02 43 48 C43.96679688 47.75636719 43.96679688 47.75636719 44.953125 47.5078125 C47.4336254 46.04785597 47.4336254 46.04785597 47.609375 42.3046875 C47.67945054 40.82904408 47.72145553 39.35203057 47.75 37.875 C47.8325 35.27625 47.915 32.6775 48 30 C41.4 30 34.8 30 28 30 C28.495 37.92 28.495 37.92 29 46 C30.65 46.66 32.3 47.32 34 48 C34 49.32 34 50.64 34 52 C22.78 52 11.56 52 0 52 C0 50.68 0 49.36 0 48 C1.98 47.505 1.98 47.505 4 47 C4.33 33.14 4.66 19.28 5 5 C3.35 4.67 1.7 4.34 0 4 C0 2.68 0 1.36 0 0 Z " fill="#060606" transform="translate(74,327)"/>
<path d="M0 0 C11.88 0 23.76 0 36 0 C43.86058981 15.72117962 43.86058981 15.72117962 46.45703125 21.859375 C47.01757776 23.17187516 47.57812465 24.48437515 48.13867188 25.796875 C48.98682038 27.79766104 49.83327971 29.79915505 50.67944336 31.80078125 C51.51805807 33.78033778 52.36232802 35.75741067 53.20703125 37.734375 C53.6966333 38.89163086 54.18623535 40.04888672 54.69067383 41.24121094 C55.84223569 44.06598956 55.84223569 44.06598956 58 46 C60.06874034 46.6425235 60.06874034 46.6425235 62 47 C62 48.65 62 50.3 62 52 C49.79 52 37.58 52 25 52 C25 50.68 25 49.36 25 48 C26.98 47.505 26.98 47.505 29 47 C28.505 43.04 28.505 43.04 28 39 C20.08 39 12.16 39 4 39 C3.67 41.64 3.34 44.28 3 47 C4.32 47.33 5.64 47.66 7 48 C7 49.32 7 50.64 7 52 C-1.25 52 -9.5 52 -18 52 C-18 50.35 -18 48.7 -18 47 C-17.25202148 46.81783936 -16.50404297 46.63567871 -15.73339844 46.44799805 C-11.95729079 44.44763234 -10.89681143 41.59181548 -9.265625 37.83203125 C-8.78038361 36.76247444 -8.78038361 36.76247444 -8.28533936 35.67131042 C-7.60516441 34.16266263 -6.9332392 32.65027195 -6.26904297 31.13452148 C-5.25754772 28.82969845 -4.21915398 26.53858761 -3.17578125 24.24804688 C-2.51659231 22.77677395 -1.85898832 21.30478968 -1.203125 19.83203125 C-0.89586487 19.15259964 -0.58860474 18.47316803 -0.27203369 17.77314758 C1.59292499 13.48192459 2.53591023 9.66017176 3 5 C2.01 4.67 1.02 4.34 0 4 C0 2.68 0 1.36 0 0 Z " fill="#0A0A0A" transform="translate(171,327)"/>
<path d="M0 0 C19.14 0 38.28 0 58 0 C58 4.62 58 9.24 58 14 C56.68 14 55.36 14 54 14 C54 13.01 54 12.02 54 11 C50.53467392 9.45322172 47.70465673 8.72532479 43.91796875 8.5859375 C42.98662109 8.54726563 42.05527344 8.50859375 41.09570312 8.46875 C40.13599609 8.4378125 39.17628906 8.406875 38.1875 8.375 C37.20845703 8.33632813 36.22941406 8.29765625 35.22070312 8.2578125 C32.8141002 8.16389629 30.40707649 8.08087436 28 8 C28 12.29 28 16.58 28 21 C30.8771875 20.7834375 30.8771875 20.7834375 33.8125 20.5625 C34.89144531 20.48128906 35.97039062 20.40007812 37.08203125 20.31640625 C40.05989905 20.09787539 40.05989905 20.09787539 43 19 C43 17.68 43 16.36 43 15 C44.65 15 46.3 15 48 15 C48 21.27 48 27.54 48 34 C46.35 34 44.7 34 43 34 C42.80664062 33.35546875 42.61328125 32.7109375 42.4140625 32.046875 C41.11291753 29.65648799 41.11291753 29.65648799 37.9609375 29.390625 C36.77757812 29.34421875 35.59421875 29.2978125 34.375 29.25 C32.27125 29.1675 30.1675 29.085 28 29 C28 33.95 28 38.9 28 44 C31.7308743 43.93996984 35.45777047 43.85291995 39.1875 43.75 C40.24259766 43.73582031 41.29769531 43.72164063 42.38476562 43.70703125 C48.56987101 43.53373332 48.56987101 43.53373332 54.17578125 41.140625 C56.19361961 39.04354881 56.19361961 39.04354881 57 36 C58.65 36 60.3 36 62 36 C62 41.28 62 46.56 62 52 C41.21 52 20.42 52 -1 52 C-1 50.68 -1 49.36 -1 48 C0.65 47.34 2.3 46.68 4 46 C4 32.47 4 18.94 4 5 C2.68 4.67 1.36 4.34 0 4 C0 2.68 0 1.36 0 0 Z " fill="#0A0A0A" transform="translate(384,327)"/>
<path d="M0 0 C11.88 0 23.76 0 36 0 C36 1.32 36 2.64 36 4 C34.68 4.33 33.36 4.66 32 5 C32.57347129 10.81220904 34.20603355 15.72050922 36.375 21.125 C36.67921875 21.91003906 36.9834375 22.69507813 37.296875 23.50390625 C38.90808051 27.58700398 40.67985202 31.25822072 43 35 C44.67760333 30.75423582 46.34017443 26.50274227 48 22.25 C48.71542969 20.44015625 48.71542969 20.44015625 49.4453125 18.59375 C49.89648438 17.43359375 50.34765625 16.2734375 50.8125 15.078125 C51.23144531 14.00981445 51.65039062 12.94150391 52.08203125 11.84082031 C53.20498707 8.86320585 53.20498707 8.86320585 53 5 C52.01 4.67 51.02 4.34 50 4 C50 2.68 50 1.36 50 0 C58.25 0 66.5 0 75 0 C75 1.32 75 2.64 75 4 C74.23937256 4.20979492 73.47874512 4.41958984 72.69506836 4.63574219 C69.12134679 6.44477889 68.50177058 8.20070606 66.87890625 11.828125 C66.33556641 13.02179688 65.79222656 14.21546875 65.23242188 15.4453125 C64.67547145 16.71340565 64.11883168 17.98163528 63.5625 19.25 C63.0112851 20.47204068 62.45856277 21.6934026 61.90429688 22.9140625 C60.23991519 26.59658909 58.61610399 30.29608258 57 34 C56.71775574 34.64348389 56.43551147 35.28696777 56.14471436 35.94995117 C55.30992938 37.85554857 54.48017025 39.76324574 53.65234375 41.671875 C53.16628662 42.79174805 52.68022949 43.91162109 52.17944336 45.06542969 C50.87158007 48.1262317 50.87158007 48.1262317 50 52 C42.08 52 34.16 52 26 52 C18.09821429 36.46428571 18.09821429 36.46428571 15.4375 29.8125 C13.19931916 24.22850615 10.40162594 19.04288428 7.453125 13.8125 C6 11 6 11 5.45703125 8.71875 C5.12863628 6.67148703 5.12863628 6.67148703 2.4375 5.5 C1.633125 5.005 0.82875 4.51 0 4 C0 2.68 0 1.36 0 0 Z " fill="#070707" transform="translate(305,327)"/>
<path d="M0 0 C1.69286133 -0.01160156 1.69286133 -0.01160156 3.41992188 -0.0234375 C9.95141228 -0.00823915 15.74949238 0.56296085 22.0625 2.25 C22.0625 6.87 22.0625 11.49 22.0625 16.25 C20.7425 16.25 19.4225 16.25 18.0625 16.25 C17.340625 15.486875 16.61875 14.72375 15.875 13.9375 C10.31525989 8.62485945 3.78811747 7.91316127 -3.67578125 7.94921875 C-6.12897959 8.27546447 -7.80333559 9.02419848 -9.9375 10.25 C-9.6075 11.9 -9.2775 13.55 -8.9375 15.25 C-8.17308594 15.48074219 -7.40867187 15.71148437 -6.62109375 15.94921875 C-3.70780302 16.8361773 -0.79973626 17.73859183 2.10693359 18.64697266 C4.07332745 19.2533388 6.04582105 19.83592117 8.01953125 20.41796875 C23.07234165 24.96738691 23.07234165 24.96738691 26.0625 30.25 C27.17598907 34.90833087 27.17493657 39.09902999 24.9453125 43.41015625 C21.64269542 47.61429854 18.10344274 49.63309384 13.0625 51.25 C12.0725 51.25 11.0825 51.25 10.0625 51.25 C10.0625 51.91 10.0625 52.57 10.0625 53.25 C-22.36981441 53.53384279 -22.36981441 53.53384279 -30.9375 49.25 C-30.9375 44.63 -30.9375 40.01 -30.9375 35.25 C-29.2875 35.25 -27.6375 35.25 -25.9375 35.25 C-24.60416667 37.25 -23.27083333 39.25 -21.9375 41.25 C-16.61418922 44.13710534 -12.24326324 44.71971355 -6.25 44.625 C-5.50427734 44.63660156 -4.75855469 44.64820313 -3.99023438 44.66015625 C0.29484368 44.63722095 2.97055678 44.33378506 6.0625 41.25 C5.41282997 38.1325469 5.41282997 38.1325469 3.05078125 37.22265625 C2.16777344 36.92230469 1.28476562 36.62195313 0.375 36.3125 C-0.615 35.97089844 -1.605 35.62929688 -2.625 35.27734375 C-6.10162376 34.19909841 -9.602184 33.28986924 -13.125 32.375 C-20.7354497 30.255423 -26.59737234 27.00416316 -30.9375 20.25 C-31.47237689 15.51251898 -31.44744704 13.26989409 -29.3125 9 C-21.35706298 -0.21155865 -11.31659164 -0.07729032 0 0 Z " fill="#080808" transform="translate(567.9375,326.75)"/>
<path d="M0 0 C11.22 0 22.44 0 34 0 C34 1.32 34 2.64 34 4 C33.01 4 32.02 4 31 4 C31.40943987 9.32271825 32.10645323 11.44018581 36 15 C36.74246719 16.20885453 37.44939924 17.44004242 38.125 18.6875 C39.61616373 22.04061719 39.61616373 22.04061719 42 23 C42.226875 22.360625 42.45375 21.72125 42.6875 21.0625 C44.1792465 17.58175816 46.03106013 14.42797197 47.9765625 11.18359375 C49.28292825 8.79827041 49.28292825 8.79827041 49 5 C48.01 4.67 47.02 4.34 46 4 C46 2.68 46 1.36 46 0 C53.59 0 61.18 0 69 0 C69 1.32 69 2.64 69 4 C68.30003906 4.54914063 67.60007812 5.09828125 66.87890625 5.6640625 C62.84258472 8.93912393 60.61060836 12.96353061 57.9375 17.375 C56.9055388 19.04984339 55.87299933 20.72433062 54.83984375 22.3984375 C54.35596191 23.19588379 53.87208008 23.99333008 53.37353516 24.81494141 C52.21565861 26.65692418 50.94166354 28.42515623 49.64453125 30.171875 C47.62066326 33.65235106 47.58708525 35.88358868 47.75 39.875 C47.80414063 41.60363281 47.80414063 41.60363281 47.859375 43.3671875 C47.90578125 44.23601562 47.9521875 45.10484375 48 46 C49.65 46.66 51.3 47.32 53 48 C53 49.32 53 50.64 53 52 C41.12 52 29.24 52 17 52 C17 50.68 17 49.36 17 48 C18.98 48 20.96 48 23 48 C24.48310346 36.39794439 21.80069981 30.20957914 15.10205078 21.09082031 C13.73594265 19.23086088 12.41833224 17.3431345 11.10546875 15.4453125 C10.25518214 14.23776395 9.40240544 13.03196406 8.546875 11.828125 C7.95444 10.99078827 7.95444 10.99078827 7.35003662 10.13653564 C5.19818438 7.21954491 3.43630706 5.27321337 0 4 C0 2.68 0 1.36 0 0 Z " fill="#080808" transform="translate(446,327)"/>
<path d="M0 0 C4.33067592 0.2165338 7.14927427 0.55691368 11 2.5625 C13.32181493 5.39221194 13.66841721 7.33490658 13.41796875 10.9765625 C12.43032914 15.75784585 9.75454087 18.41837475 6 21.3125 C-0.24848996 24.8272756 -6.96757649 24.63693166 -14 24 C-16.81727608 23.01139221 -17.8332049 22.1667951 -20 20 C-20.875 17.75 -20.875 17.75 -21 16 C-15 14 -15 14 -12.703125 13.3046875 C-11.91421875 13.05976563 -11.1253125 12.81484375 -10.3125 12.5625 C-9.19294922 12.22412109 -9.19294922 12.22412109 -8.05078125 11.87890625 C-5.7449501 10.8906929 -4.56134511 9.95519793 -3 8 C-2.28072705 5.68234271 -1.6090107 3.34904126 -1 1 C-0.67 0.67 -0.34 0.34 0 0 Z " fill="#ED7F21" transform="translate(394,167)"/>
<path d="M0 0 C3.25 0.375 3.25 0.375 6.125 2.1875 C9.2362703 6.85440545 8.96518492 10.92479768 8.25 16.375 C6.95304162 20.43880291 4.90694622 21.79033649 1.25 23.6875 C-4.93242688 26.13638338 -11.21249179 26.85450778 -17.44921875 24.24609375 C-19.62896448 23.04500937 -21.70372638 21.78970769 -23.75 20.375 C-23.79254356 18.37545254 -23.79080783 16.37458364 -23.75 14.375 C-22.75 13.375 -22.75 13.375 -19.15234375 13.27734375 C-17.66403133 13.2840178 -16.17573568 13.29597817 -14.6875 13.3125 C-13.54958008 13.31926758 -13.54958008 13.31926758 -12.38867188 13.32617188 C-10.50908129 13.3379932 -8.62953101 13.35592922 -6.75 13.375 C-6.54503906 12.52035156 -6.34007812 11.66570312 -6.12890625 10.78515625 C-5.85949219 9.68042969 -5.59007812 8.57570312 -5.3125 7.4375 C-5.04566406 6.33535156 -4.77882812 5.23320312 -4.50390625 4.09765625 C-3.50147408 0.47747374 -3.50147408 0.47747374 0 0 Z " fill="#E87D22" transform="translate(152.75,231.625)"/>
<path d="M0 0 C5.20250277 0.40803943 8.45071909 1.03315663 12 5 C13.19255047 9.02485784 13.27461824 11.22191498 11.875 15.1875 C9.10238438 19.34642343 5.64021078 22.15964521 1 24 C-2.49609375 24.3359375 -2.49609375 24.3359375 -6.4375 24.375 C-7.73558594 24.40335938 -9.03367188 24.43171875 -10.37109375 24.4609375 C-14.47171375 23.94008372 -16.08135177 22.84554143 -19 20 C-18.505 18.515 -18.505 18.515 -18 17 C-17.43152344 16.97421875 -16.86304688 16.9484375 -16.27734375 16.921875 C-10.48122884 16.49611698 -6.80073158 15.30050296 -2 12 C-0.78306124 9.56612247 -0.68040104 7.58161154 -0.4375 4.875 C-0.35371094 3.96492187 -0.26992187 3.05484375 -0.18359375 2.1171875 C-0.09271484 1.06917969 -0.09271484 1.06917969 0 0 Z " fill="#E67C22" transform="translate(216,195)"/>
<path d="M0 0 C4.39906482 0.22753784 7.85325321 0.46266617 11.5 3.0625 C14.31107113 6.36550858 14.857323 7.85699549 14.5234375 12.0703125 C13.61494839 15.41951862 11.70358103 16.95729433 9 19 C3.45622875 21.6779234 -1.95826775 21.54776192 -8 21 C-11.50436082 19.67075969 -13.3834084 18.6165916 -16 16 C-16 15.01 -16 14.02 -16 13 C-14.92878906 12.79503906 -13.85757812 12.59007812 -12.75390625 12.37890625 C-11.35673149 12.10697291 -9.95959819 11.83482648 -8.5625 11.5625 C-7.85544922 11.42779297 -7.14839844 11.29308594 -6.41992188 11.15429688 C-2.91570736 10.71593102 -2.91570736 10.71593102 0 9 C0.07179964 7.48071962 0.08392007 5.95832518 0.0625 4.4375 C0.05347656 3.61121094 0.04445313 2.78492188 0.03515625 1.93359375 C0.02355469 1.29550781 0.01195312 0.65742188 0 0 Z " fill="#E87D22" transform="translate(312,173)"/>
<path d="M0 0 C4.70858184 0.11284183 8.09487402 0.42071937 12.125 3 C14.40450903 6.64721445 14.5892418 8.6693168 13.81640625 12.83984375 C12.62653315 15.98816828 11.17147135 17.47699639 8.296875 19.1875 C3.07328348 21.03530108 -2.83230377 21.12363564 -8.0703125 19.265625 C-10.77928655 17.6690316 -11.90616122 16.2690045 -12.9375 13.3125 C-12.958125 12.549375 -12.97875 11.78625 -13 11 C-11.04848373 9.04848373 -7.54831255 9.29031251 -4.9375 8.9375 C-3.64714844 8.76089844 -2.35679687 8.58429688 -1.02734375 8.40234375 C-0.02832031 8.26957031 0.97070312 8.13679687 2 8 C1.67 7.236875 1.34 6.47375 1 5.6875 C0 3 0 3 0 0 Z " fill="#E87D22" transform="translate(494,203)"/>
<path d="M0 0 C1.98 0 3.96 0 6 0 C5.38461538 6.52307692 5.38461538 6.52307692 3.4375 8.9375 C2.963125 9.288125 2.48875 9.63875 2 10 C1.505 9.01 1.505 9.01 1 8 C-1.01136276 10.55991624 -2.62845496 13.04590299 -4 16 C-5.65 16 -7.3 16 -9 16 C-9.33 13.69 -9.66 11.38 -10 9 C-10.99 10.98 -11.98 12.96 -13 15 C-13.99 14.67 -14.98 14.34 -16 14 C-17.1875 11.4375 -17.1875 11.4375 -18 9 C-18.33 10.98 -18.66 12.96 -19 15 C-19.99 15 -20.98 15 -22 15 C-22 11.04 -22 7.08 -22 3 C-23.65 3 -25.3 3 -27 3 C-27 6.96 -27 10.92 -27 15 C-27.99 15 -28.98 15 -30 15 C-30 11.04 -30 7.08 -30 3 C-31.32 3 -32.64 3 -34 3 C-34 2.34 -34 1.68 -34 1 C-28.72 1 -23.44 1 -18 1 C-15 7 -15 7 -15 10 C-14.34 10 -13.68 10 -13 10 C-12.87625 9.2575 -12.7525 8.515 -12.625 7.75 C-12.04513299 5.19858515 -11.26291261 3.2732427 -10 1 C-8.68 1 -7.36 1 -6 1 C-5.67 4.63 -5.34 8.26 -5 12 C-3.35 8.04 -1.7 4.08 0 0 Z " fill="#FAC393" transform="translate(621,487)"/>
<path d="M0 0 C4.29 0 8.58 0 13 0 C13.52239083 6.13809229 12.22563423 10.72618698 9 16 C6.22471371 19.0646878 2.88125273 21.52780069 -1 23 C-1.99 23 -2.98 23 -4 23 C-3.53162559 20.34587835 -2.98210057 17.95413272 -2 15.4375 C-0.51533156 10.33395222 -0.35330979 5.29964692 0 0 Z " fill="#0C0C0C" transform="translate(522,327)"/>
<path d="M0 0 C10.98214286 -0.53571429 10.98214286 -0.53571429 14.6875 1.5625 C17 4 17 4 17.6875 7.5 C17 11 17 11 14.6875 13.375 C11.0615654 15.56742557 8.46973937 16.12274985 4.3125 16.0625 C2.1778125 16.0315625 2.1778125 16.0315625 0 16 C0 10.72 0 5.44 0 0 Z " fill="#F2F2F2" transform="translate(264,335)"/>
<path d="M0 0 C3.18873549 -0.35430394 4.61589191 -0.25953249 7.3125 1.5625 C9.66853286 4.96565857 9.64073066 6.94203913 9 11 C6.5625 13.875 6.5625 13.875 4 16 C3.67 16.33 3.34 16.66 3 17 C-1.67069022 17.51896558 -5.67719965 17.91336215 -9.625 15.1875 C-11 13 -11 13 -11 10 C-10.37351562 9.86464844 -9.74703125 9.72929687 -9.1015625 9.58984375 C-4.29097767 8.51771332 -4.29097767 8.51771332 -0.95703125 5.2421875 C-0.33633778 3.10496935 -0.33633778 3.10496935 0 0 Z " fill="#E57C23" transform="translate(352,205)"/>
<path d="M0 0 C3 1 3 1 4.09765625 3.109375 C4.41605469 3.98078125 4.73445312 4.8521875 5.0625 5.75 C5.38347656 6.61109375 5.70445312 7.4721875 6.03515625 8.359375 C6.35355469 9.23078125 6.67195312 10.1021875 7 11 C7.36996094 11.87140625 7.73992187 12.7428125 8.12109375 13.640625 C9 16 9 16 9 19 C3.72 19 -1.56 19 -7 19 C-6.10656817 14.53284086 -4.76463639 10.80385599 -2.9375 6.6875 C-2.65583984 6.04232422 -2.37417969 5.39714844 -2.08398438 4.73242188 C-1.3937257 3.15301642 -0.69746802 1.57623507 0 0 Z " fill="#E4E4E4" transform="translate(186,338)"/>
<path d="M0 0 C1.98 0 3.96 0 6 0 C5.38461538 6.52307692 5.38461538 6.52307692 3.4375 8.9375 C2.963125 9.288125 2.48875 9.63875 2 10 C1.67 9.34 1.34 8.68 1 8 C-1.01136276 10.55991624 -2.62845496 13.04590299 -4 16 C-5.65 16 -7.3 16 -9 16 C-9.33 12.7 -9.66 9.4 -10 6 C-9.34 6 -8.68 6 -8 6 C-7.67 4.35 -7.34 2.7 -7 1 C-6.67 1 -6.34 1 -6 1 C-5.67 4.63 -5.34 8.26 -5 12 C-3.35 8.04 -1.7 4.08 0 0 Z " fill="#FAC394" transform="translate(621,487)"/>
<path d="M0 0 C3.63 0 7.26 0 11 0 C9.68 0.33 8.36 0.66 7 1 C7 5.29 7 9.58 7 14 C6.01 14 5.02 14 4 14 C4 10.04 4 6.08 4 2 C2.68 2 1.36 2 0 2 C0 1.34 0 0.68 0 0 Z " fill="#F7AA67" transform="translate(587,488)"/>
<path d="M0 0 C0.66 0.33 1.32 0.66 2 1 C-4.93 7.93 -11.86 14.86 -19 22 C-19 17.83256273 -16.7220201 16.1175327 -14 13.25 C-13.50395264 12.71793945 -13.00790527 12.18587891 -12.49682617 11.63769531 C-8.56892151 7.476431 -4.4406485 3.61359362 0 0 Z " fill="#263559" transform="translate(109,209)"/>
<path d="M0 0 C1.98 0 3.96 0 6 0 C5.38461538 6.52307692 5.38461538 6.52307692 3.4375 8.9375 C2.963125 9.288125 2.48875 9.63875 2 10 C1.67 9.34 1.34 8.68 1 8 C0.01 8.495 0.01 8.495 -1 9 C-0.4740625 7.329375 -0.4740625 7.329375 0.0625 5.625 C1.37239331 2.19735524 1.37239331 2.19735524 0 0 Z " fill="#FDEDDF" transform="translate(621,487)"/>
<path d="M0 0 C0.99 0 1.98 0 3 0 C3 4.62 3 9.24 3 14 C2.67 14 2.34 14 2 14 C2 11.03 2 8.06 2 5 C1.01 5.33 0.02 5.66 -1 6 C-0.67 4.02 -0.34 2.04 0 0 Z " fill="#F69848" transform="translate(611,488)"/>
<path d="M0 0 C1.1875 1.625 1.1875 1.625 2 4 C0.625 7.25 0.625 7.25 -1 10 C-1.66 10 -2.32 10 -3 10 C-3 9.01 -3 8.02 -3 7 C-2.34 7 -1.68 7 -1 7 C-0.67 4.69 -0.34 2.38 0 0 Z " fill="#F8AF70" transform="translate(609,492)"/>
<path d="M0 0 C0.99 0 1.98 0 3 0 C2.34 4.29 1.68 8.58 1 13 C0.67 13 0.34 13 0 13 C0 8.71 0 4.42 0 0 Z " fill="#F69847" transform="translate(600,488)"/>
<path d="M0 0 C0.99 0 1.98 0 3 0 C2.625 2.9375 2.625 2.9375 2 6 C1.01 6.495 1.01 6.495 0 7 C0 4.69 0 2.38 0 0 Z " fill="#F79F54" transform="translate(624,488)"/>
</svg>
